<mxfile host="app.diagrams.net" modified="2023-07-23T16:04:26.836Z" agent="Mozilla/5.0 (X11; Linux x86_64) AppleWebKit/537.36 (KHTML, like Gecko) Chrome/114.0.0.0 Safari/537.36" etag="YI4b9NIWi4qelKK6bgwP" version="21.6.5" type="github">
  <diagram name="Page-1" id="vgP_Dxu3JlIWiKwFK2pT">
    <mxGraphModel dx="992" dy="559" grid="1" gridSize="10" guides="1" tooltips="1" connect="1" arrows="1" fold="1" page="1" pageScale="1" pageWidth="827" pageHeight="1169" math="0" shadow="0">
      <root>
        <mxCell id="0" />
        <mxCell id="1" parent="0" />
      </root>
    </mxGraphModel>
  </diagram>
</mxfile>
